<?xml version="1.0" standalone="no"?>
<!DOCTYPE svg PUBLIC "-//W3C//DTD SVG 20010904//EN"
 "http://www.w3.org/TR/2001/REC-SVG-20010904/DTD/svg10.dtd">
<svg version="1.0" xmlns="http://www.w3.org/2000/svg"
 width="1224.000000pt" height="1280.000000pt" viewBox="0 0 1224.000000 1280.000000"
 preserveAspectRatio="xMidYMid meet">
<g transform="translate(0.000000,1280.000000) scale(0.100000,-0.100000)"
fill="#000000" stroke="none">
<path d="M1775 12779 c-456 -61 -832 -235 -1137 -528 -132 -126 -214 -224
-302 -357 -177 -271 -288 -596 -315 -924 -13 -164 -4 -8975 10 -9140 59 -707
472 -1312 1105 -1621 200 -98 390 -152 669 -191 71 -10 961 -13 4325 -13 4005
0 4242 1 4360 18 463 66 847 253 1160 567 314 313 501 697 567 1160 17 118 18
367 18 4645 0 3594 -3 4538 -13 4610 -70 501 -233 851 -546 1174 -173 177
-331 294 -542 400 -217 109 -410 164 -701 201 -156 20 -211 20 -4338 19 -4023
-1 -4185 -2 -4320 -20z m7165 -984 c384 -58 731 -281 946 -607 105 -159 170
-321 211 -523 17 -86 18 -282 18 -4335 0 -4048 -1 -4249 -18 -4328 -126 -587
-583 -1019 -1169 -1108 -84 -12 -463 -14 -2755 -11 -2525 2 -2662 4 -2733 21
-125 30 -228 65 -324 111 -395 190 -672 541 -768 978 l-23 102 1 4220 c2 4627
-3 4285 59 4500 34 119 128 310 203 415 215 299 554 508 917 564 137 21 5296
23 5435 1z"/>
<path d="M4084 10415 c-203 -44 -384 -221 -440 -430 -14 -53 -16 -160 -14
-928 1 -950 0 -919 61 -1046 44 -89 150 -199 239 -245 38 -20 104 -45 146 -56
76 -20 120 -20 2163 -20 1792 0 2096 2 2156 15 166 35 325 156 397 305 68 140
68 133 68 1057 0 909 0 902 -61 1026 -68 141 -196 255 -344 307 l-70 25 -2120
2 c-1732 1 -2131 -1 -2181 -12z"/>
<path d="M4298 6876 c-121 -43 -219 -127 -273 -233 -36 -73 -48 -135 -43 -226
12 -239 225 -427 483 -427 202 0 369 99 452 268 37 74 38 79 38 186 0 104 -2
115 -32 179 -59 124 -183 228 -317 263 -84 22 -229 18 -308 -10z"/>
<path d="M8160 6894 c-14 -3 -52 -14 -85 -26 -340 -119 -434 -523 -176 -760
94 -86 208 -130 341 -130 43 0 102 5 132 12 138 32 270 139 331 267 30 64 32
75 32 178 0 103 -2 114 -32 178 -80 168 -242 273 -433 282 -47 2 -96 2 -110
-1z"/>
<path d="M5660 6869 c-125 -22 -277 -123 -337 -227 -59 -100 -78 -231 -49
-338 42 -160 189 -297 357 -334 78 -17 229 -9 302 18 127 46 240 156 288 281
31 80 31 213 0 294 -51 130 -174 245 -305 286 -79 24 -184 33 -256 20z"/>
<path d="M6910 6870 c-266 -41 -454 -278 -412 -521 40 -233 239 -391 492 -391
304 0 528 238 489 521 -35 249 -300 432 -569 391z"/>
<path d="M4340 5779 c-111 -21 -252 -121 -312 -219 -55 -92 -76 -237 -48 -340
46 -173 207 -311 395 -340 284 -45 554 153 572 420 22 312 -272 544 -607 479z"/>
<path d="M8106 5764 c-182 -44 -328 -198 -358 -377 -45 -272 193 -528 490
-527 313 1 553 285 478 566 -67 252 -340 403 -610 338z"/>
<path d="M5665 5750 c-240 -32 -415 -223 -415 -454 0 -131 41 -226 138 -318
98 -93 210 -138 347 -138 201 0 369 99 452 268 37 74 38 79 38 186 0 104 -2
115 -32 179 -92 193 -307 306 -528 277z"/>
<path d="M6870 5745 c-147 -33 -283 -135 -342 -257 -148 -305 87 -648 444
-648 296 0 514 216 495 490 -12 178 -141 338 -322 399 -84 28 -194 34 -275 16z"/>
<path d="M4270 4626 c-153 -43 -281 -162 -330 -307 -18 -52 -21 -81 -18 -155
3 -81 8 -100 41 -167 83 -168 251 -267 452 -267 356 0 591 339 447 644 -55
115 -163 207 -289 246 -76 23 -229 26 -303 6z"/>
<path d="M8051 4614 c-134 -36 -255 -137 -313 -261 -57 -122 -49 -284 19 -401
57 -96 170 -180 292 -216 67 -20 207 -21 277 -2 355 94 476 508 222 753 -104
100 -216 144 -363 142 -44 0 -104 -7 -134 -15z"/>
<path d="M5551 4594 c-243 -65 -398 -320 -337 -550 82 -310 477 -453 757 -274
253 163 291 496 78 701 -61 59 -154 111 -229 128 -64 15 -205 12 -269 -5z"/>
<path d="M6791 4594 c-205 -55 -351 -240 -351 -444 0 -297 301 -517 608 -445
237 56 382 244 370 477 -3 67 -10 97 -36 151 -57 124 -173 220 -311 261 -68
20 -207 20 -280 0z"/>
<path d="M4323 3539 c-129 -21 -251 -96 -323 -197 -90 -125 -106 -300 -40
-437 78 -165 260 -275 450 -275 141 0 257 47 356 142 230 221 164 585 -131
724 -102 48 -200 62 -312 43z"/>
<path d="M8181 3514 c-129 -35 -260 -141 -315 -257 -122 -258 35 -563 325
-632 350 -82 674 197 610 527 -52 263 -347 436 -620 362z"/>
<path d="M5563 3495 c-175 -48 -315 -185 -352 -346 -32 -137 9 -286 107 -392
157 -169 396 -211 608 -107 235 115 327 376 213 602 -97 193 -357 302 -576
243z"/>
<path d="M6800 3494 c-228 -60 -371 -249 -358 -471 8 -134 76 -252 193 -335
223 -157 536 -112 697 100 66 87 92 174 86 292 -4 77 -9 98 -41 163 -42 85
-126 171 -208 212 -103 53 -257 69 -369 39z"/>
</g>
</svg>
